<svg xmlns="http://www.w3.org/2000/svg" width="56.038" height="40" viewBox="0 0 56.038 40">
  <path id="discord" d="M51.624,21.088a23.7,23.7,0,0,0-13.445-4.994l-.672.768c8.163,2.449,11.957,6.05,11.957,6.05-11.679-6.43-26.556-6.384-38.7,0,0,0,3.937-3.794,12.581-6.243l-.48-.576A23.8,23.8,0,0,0,9.416,21.088,63.4,63.4,0,0,0,2.5,48.843s4.034,6.915,14.646,7.251c0,0,1.777-2.113,3.217-3.937-6.1-1.824-8.4-5.618-8.4-5.618a35.562,35.562,0,0,0,12.533,4.85,34.712,34.712,0,0,0,24.922-4.85s-2.4,3.89-8.691,5.666c1.44,1.777,3.169,3.841,3.169,3.841,10.611-.336,14.645-7.25,14.645-7.2A63.4,63.4,0,0,0,51.624,21.088Zm-30.06,23.29a5.1,5.1,0,0,1-4.9-5.282c.2-7.015,9.649-6.993,9.8,0A5.074,5.074,0,0,1,21.564,44.378Zm17.527,0a5.1,5.1,0,0,1-4.9-5.282c.216-7,9.55-7,9.8,0A5.074,5.074,0,0,1,39.091,44.378Z" transform="translate(-2.501 -16.093)"/>
</svg>
