<svg xmlns="http://www.w3.org/2000/svg" width="44.444" height="40" viewBox="0 0 44.444 40">
  <g id="opensea" transform="translate(-1707 -1014)">
    <path id="Path_62" data-name="Path 62" d="M22.185,41.817l.146-.229,8.783-13.741a.3.3,0,0,1,.527.038c1.467,3.289,2.734,7.379,2.14,9.925a15.513,15.513,0,0,1-1.727,3.778c-.1.191-.212.378-.33.559a.3.3,0,0,1-.25.132H22.442A.3.3,0,0,1,22.185,41.817Z" transform="translate(1687.291 994.382)"/>
    <path id="Path_63" data-name="Path 63" d="M63.344,43.567v2.322a.333.333,0,0,1-.2.3c-.726.311-3.211,1.452-4.244,2.889C56.262,52.752,54.248,58,49.744,58H30.955A12.075,12.075,0,0,1,18.9,45.9v-.215a.322.322,0,0,1,.322-.322H29.7a.356.356,0,0,1,.341.4,3.575,3.575,0,0,0,.374,2.011,3.685,3.685,0,0,0,3.3,2.052H38.9V45.778H33.774a.33.33,0,0,1-.267-.519c.056-.085.118-.174.185-.274.485-.689,1.178-1.759,1.867-2.978a23.324,23.324,0,0,0,1.293-2.581c.074-.159.133-.322.193-.482.1-.281.2-.544.278-.807.074-.222.133-.456.193-.674a10.435,10.435,0,0,0,.248-2.363c0-.322-.015-.659-.044-.981-.015-.352-.059-.7-.1-1.056-.03-.311-.085-.619-.144-.941-.074-.47-.178-.937-.3-1.407l-.041-.178c-.089-.322-.163-.63-.267-.952-.293-1.011-.63-2-.985-2.919-.13-.367-.278-.718-.426-1.07-.219-.53-.441-1.011-.644-1.467-.1-.207-.193-.4-.282-.589-.1-.219-.2-.437-.307-.644-.074-.159-.159-.307-.219-.455l-.633-1.17a.207.207,0,0,1,.233-.3l3.963,1.074h.011c.007,0,.011,0,.015,0l.522.144.574.163.211.059V20.059A2.048,2.048,0,0,1,40.937,18a2.011,2.011,0,0,1,1.441.6,2.07,2.07,0,0,1,.6,1.456v3.5l.422.118a.336.336,0,0,1,.1.048c.1.078.252.193.441.333.148.119.307.263.5.411.381.307.837.7,1.337,1.159.133.115.263.233.381.352.644.6,1.367,1.3,2.056,2.081.193.218.381.441.574.674s.4.47.574.7c.233.311.485.633.7.97.1.159.222.322.322.481.281.426.53.867.767,1.307.1.2.2.426.293.644a9.42,9.42,0,0,1,.6,1.789,2.231,2.231,0,0,1,.085.4v.03a3.4,3.4,0,0,1,.074.559,5.982,5.982,0,0,1-.1,1.848,6.728,6.728,0,0,1-.219.774c-.089.252-.178.515-.293.763a10.342,10.342,0,0,1-.8,1.511c-.1.178-.218.367-.337.544s-.263.367-.381.541c-.163.222-.337.455-.515.663a7.04,7.04,0,0,1-.5.63c-.248.293-.485.57-.733.837-.148.174-.307.352-.47.511-.159.178-.322.337-.47.485-.248.248-.456.441-.63.6l-.407.374a.332.332,0,0,1-.218.081H42.974v4.048h3.97a3.714,3.714,0,0,0,2.415-.893,28.979,28.979,0,0,0,2.456-2.415.308.308,0,0,1,.152-.093l10.966-3.17A.323.323,0,0,1,63.344,43.567Z" transform="translate(1688.1 996)"/>
  </g>
</svg>
